<svg xmlns="http://www.w3.org/2000/svg" width="768" height="768" viewBox="0 0 768 768" version="1.1"><path d="M 439.326 52.023 C 433.348 53.236, 429.687 55.379, 425.761 59.966 C 420.355 66.282, 418.305 76.944, 421.197 83.703 C 427.185 97.696, 441.511 104.860, 458.046 102.130 C 465.624 100.878, 477.523 95.863, 486.446 90.161 C 489.166 88.422, 491.656 87, 491.980 87 C 493.106 87, 491.032 105.989, 489.508 109.636 C 487.790 113.747, 488.254 115.033, 490.798 113.208 C 491.734 112.537, 493.155 111.681, 493.956 111.308 C 494.756 110.934, 496.106 110.056, 496.956 109.358 C 500.749 106.237, 523.535 90.317, 523.844 90.572 C 524.034 90.728, 521.963 95.050, 519.242 100.178 C 514.211 109.660, 509.759 120.426, 510.544 121.211 C 510.783 121.449, 513.345 121.307, 516.239 120.895 C 519.132 120.483, 522.288 120.113, 523.250 120.073 C 526.058 119.956, 525.264 118.163, 522.250 117.816 C 519.976 117.555, 519.548 117.068, 519.779 115 C 520.174 111.450, 530.404 91.058, 534.706 85.244 C 540.479 77.442, 548.542 73.115, 553.672 75.065 C 555.742 75.852, 556.094 76.488, 555.586 78.515 C 554.581 82.516, 556.776 81.422, 560.022 76.304 C 561.660 73.722, 563 71.247, 563 70.804 C 563 69.527, 553.746 69.871, 548.909 71.328 C 546.484 72.059, 539.445 76.221, 533.268 80.578 C 514.723 93.657, 500.701 103.450, 499.278 104.318 C 498.170 104.993, 498.057 103, 498.628 92.884 L 499.321 80.632 505.189 74.566 C 513.485 65.990, 516.903 58.303, 513.800 55.200 C 508.891 50.291, 498.034 61.663, 494.422 75.500 C 493.416 79.350, 492.026 83.079, 491.331 83.788 C 488.178 87.002, 474.888 94.239, 469 95.948 C 458.340 99.043, 454.795 99.290, 447.348 97.457 C 440.152 95.686, 436.056 93.635, 431.759 89.652 C 423.369 81.877, 422.602 66.558, 430.240 59.324 C 440.881 49.247, 456.131 54.841, 470.022 73.917 C 472.458 77.263, 475.216 80, 476.150 80 C 479.279 80, 488 77.666, 488 76.828 C 488 76.373, 486.284 76, 484.187 76 C 480.073 76, 478.509 74.709, 472.002 65.941 C 464.072 55.257, 450.946 49.666, 439.326 52.023 M 504.211 62.199 C 502.232 65.438, 500.017 72.132, 500.006 74.903 C 499.993 78.093, 508.593 65.913, 509.159 61.938 C 509.697 58.165, 506.573 58.329, 504.211 62.199 M 300.943 66.859 C 290.584 72.041, 283.365 79.011, 277.456 89.535 C 271.986 99.278, 271.727 112, 276.998 112 C 279.586 112, 287.014 105.204, 290.994 99.195 L 294.039 94.598 293.770 100.450 C 293.603 104.078, 293.923 106.450, 294.613 106.689 C 296.216 107.246, 306.184 99.106, 305.417 97.866 C 304.976 97.152, 304.433 97.167, 303.687 97.913 C 303.089 98.511, 301.953 99, 301.162 99 C 299.985 99, 299.849 97.774, 300.414 92.250 C 300.967 86.844, 300.855 85.749, 299.852 86.750 C 298.380 88.219, 296.614 88.433, 297.477 87.038 C 297.804 86.508, 298.114 83.958, 298.166 81.369 C 298.237 77.848, 297.788 76.318, 296.385 75.292 C 294.766 74.109, 294.714 73.792, 296.005 72.975 C 296.827 72.455, 299.075 71.769, 301 71.451 C 306.624 70.522, 309 69.206, 309 67.021 C 309 64.458, 305.869 64.395, 300.943 66.859 M 288.088 79.147 C 283.321 83.726, 279.383 91.262, 278.428 97.629 C 277.755 102.123, 279.170 106, 281.484 106 C 283.397 106, 287.368 100.621, 290.489 93.806 C 293.125 88.047, 295.108 75, 293.346 75 C 292.827 75, 290.461 76.866, 288.088 79.147 M 239.457 84.863 C 230.685 90.213, 224.029 104.064, 224.015 117 C 224.003 127.456, 228.555 132.843, 234.700 129.647 C 238.439 127.702, 241.300 124.442, 244.043 119 C 246.831 113.467, 248.090 108.229, 247.345 105.250 C 246.550 102.065, 245 102.455, 245 105.841 C 245 110.660, 242.250 118.129, 239.370 121.136 C 232.767 128.028, 228.389 122.430, 229.269 108.221 C 229.671 101.738, 230.290 99.200, 232.123 96.526 C 236.177 90.609, 241.926 89.745, 240.607 95.250 C 240.374 96.221, 240.755 97, 241.463 97 C 242.780 97, 243.970 91.939, 243.989 86.250 C 244.002 82.484, 243.573 82.353, 239.457 84.863 M 183.485 99.048 C 182.851 101.046, 184.403 104, 186.087 104 C 187.460 104, 189.042 100.272, 188.389 98.572 C 187.523 96.316, 184.251 96.633, 183.485 99.048 M 184.569 114.594 C 180.737 120.365, 180.467 122.697, 184 119.500 C 185.107 118.498, 186.206 117.873, 186.443 118.110 C 186.680 118.347, 187.607 124.157, 188.502 131.020 C 189.397 137.884, 191.014 145.500, 192.095 147.945 L 194.060 152.390 197.941 146.956 C 201.775 141.589, 202.428 138.397, 199.072 141.435 C 198.121 142.296, 197.091 143, 196.783 143 C 196.033 143, 195.254 138.495, 193.944 126.588 C 192.903 117.120, 190.635 109, 189.033 109 C 188.621 109, 186.612 111.517, 184.569 114.594 M 566.500 125.340 C 560.038 127.022, 555.468 129.452, 551.895 133.107 C 543.499 141.697, 550.444 149.103, 565.405 147.512 C 581.579 145.793, 591.555 138.172, 587.021 131 C 585.608 128.764, 574.639 128.933, 572.345 131.226 C 569.924 133.647, 571.104 134.280, 574.990 132.646 C 578.732 131.073, 582 131.546, 582 133.662 C 582 137.239, 572.920 143.113, 564.460 145.009 C 560.600 145.874, 559.319 145.784, 557.374 144.509 C 553.701 142.103, 554.329 138.740, 559.250 134.458 C 568.654 126.277, 577.705 124.848, 587.497 129.998 C 593.209 133.003, 595 133.113, 595 130.461 C 595 125.955, 576.743 122.674, 566.500 125.340 M 145.583 129.909 C 144.138 131.505, 144.027 132.439, 144.905 135.618 C 145.829 138.963, 145.697 139.694, 143.807 141.706 C 141.443 144.221, 142.018 146.060, 144.518 143.985 C 145.433 143.226, 146.410 143.063, 146.865 143.592 C 147.294 144.092, 148.890 149.675, 150.410 156 C 154.645 173.610, 156.675 177.421, 161.191 176.240 C 163.122 175.735, 168 167.349, 168 164.533 C 168 161.951, 166.438 162.824, 164.930 166.250 C 162.341 172.132, 160.839 170.415, 156.835 157 C 151.449 138.950, 151.309 137.683, 154.470 135.611 C 155.897 134.677, 156.780 133.453, 156.433 132.891 C 156.035 132.247, 155.162 132.448, 154.072 133.435 C 151.430 135.825, 150.285 135.334, 149.566 131.500 C 148.818 127.514, 148.033 127.201, 145.583 129.909 M 354.250 129.732 C 351.913 129.943, 350 130.247, 350 130.408 C 350 130.569, 348.880 140.556, 347.511 152.601 C 346.142 164.645, 345.017 176.188, 345.011 178.250 C 345 182.112, 343.525 183.351, 342.630 180.250 C 342.352 179.287, 340.039 171.075, 337.490 162 C 334.941 152.925, 331.991 142.538, 330.935 138.917 L 329.015 132.334 317.257 134.538 C 302.368 137.329, 295.549 139.024, 293.249 140.507 C 293.111 140.596, 294.343 149.406, 295.987 160.085 C 297.631 170.763, 299.183 180.995, 299.437 182.822 L 299.898 186.144 297.580 182.822 C 296.305 180.995, 290.410 172.027, 284.479 162.894 L 273.696 146.287 269.598 147.584 C 257.903 151.283, 239 160.395, 239 162.332 C 239 163.657, 245.497 182.377, 246.545 184.073 C 248.414 187.097, 244.369 183.837, 236.371 175.871 L 227.204 166.743 218.352 172.074 C 210.144 177.017, 196.368 186.530, 191.359 190.712 L 189.218 192.500 192.608 201.500 C 197.781 215.234, 197.747 214.966, 193.865 211.467 C 188.289 206.441, 180.187 200, 179.441 200 C 177.329 200, 153.007 224.855, 140.298 240 C 126.506 256.435, 114.683 274.397, 104.549 294.307 C 95.556 311.978, 87.392 331.866, 88.684 332.957 C 89.133 333.336, 100.525 337.949, 114 343.207 C 163.286 362.442, 180.718 369.345, 185.715 371.606 C 187.483 372.406, 200.533 377.732, 214.715 383.442 C 228.897 389.151, 245.450 395.849, 251.500 398.325 C 257.550 400.801, 266.775 404.499, 272 406.543 C 277.225 408.587, 283.170 411.101, 285.210 412.130 C 290.031 414.560, 292.664 414.495, 294.046 411.914 C 295.356 409.466, 295.030 409.024, 290.731 407.434 C 286.892 406.014, 230.187 383.014, 209 374.283 C 204.325 372.357, 197.800 369.730, 194.500 368.446 C 180.255 362.903, 146.924 349.257, 146.435 348.769 C 145.474 347.807, 169.866 331.938, 183.713 324.516 C 188.749 321.817, 189.016 321.780, 191.528 323.426 C 192.959 324.364, 203.100 330.276, 214.065 336.565 C 252.483 358.601, 273.544 370.733, 278.553 373.711 C 281.331 375.363, 285.606 377.846, 288.053 379.228 C 290.499 380.610, 296.511 384.071, 301.412 386.919 C 309.942 391.874, 314.500 393.012, 314.500 390.186 C 314.500 389.463, 311.889 387.438, 308.697 385.686 C 299.234 380.490, 266.785 361.879, 263 359.476 C 259.662 357.357, 243.824 348.197, 210.129 328.897 C 201.676 324.054, 194.523 319.857, 194.235 319.569 C 192.941 318.274, 229.512 303.592, 231.326 304.679 C 232.390 305.317, 236.999 309.391, 255.446 326 C 258.806 329.025, 264.692 334.244, 268.527 337.598 C 285.185 352.164, 313.845 377.554, 317.713 381.171 C 321.305 384.529, 322.227 384.949, 323.963 384.020 C 325.083 383.420, 325.978 382.608, 325.951 382.215 C 325.925 381.822, 323.562 379.578, 320.701 377.230 C 314.788 372.376, 312.946 370.767, 297.009 356.546 C 290.679 350.897, 275.390 337.326, 263.034 326.387 C 250.678 315.449, 239.517 305.526, 238.231 304.336 L 235.894 302.173 241.197 300.686 C 244.114 299.869, 250.933 298.155, 256.351 296.879 L 266.202 294.558 268.003 297.029 C 268.993 298.388, 277.160 308.723, 286.152 319.996 C 295.143 331.269, 303.175 341.468, 304 342.661 C 307.423 347.610, 333.189 378.999, 333.818 378.985 C 334.193 378.976, 335.107 378.584, 335.850 378.114 C 337.179 377.272, 335.296 373.968, 329.800 367.500 C 316.930 352.353, 272.064 294.536, 272.692 293.908 C 273.578 293.022, 295.996 290.949, 297.189 291.642 C 297.567 291.862, 299.320 294.620, 301.084 297.771 C 309.284 312.420, 323.037 337.299, 328.021 346.500 C 341.974 372.260, 343.053 374, 345.086 374 C 346.139 374, 347 373.417, 347 372.705 C 347 371.993, 339.221 357.255, 329.714 339.955 C 320.207 322.655, 310.252 304.505, 307.592 299.623 L 302.756 290.745 315.628 291.439 C 322.708 291.820, 329.256 292.348, 330.181 292.611 C 331.105 292.875, 332.168 294.533, 332.544 296.295 C 332.919 298.058, 334.252 302.650, 335.504 306.500 C 336.757 310.350, 339.672 320.025, 341.983 328 C 344.293 335.975, 346.993 344.975, 347.981 348 C 348.970 351.025, 350.968 357.438, 352.421 362.250 C 354.578 369.390, 355.427 371, 357.032 371 C 358.115 371, 359 370.749, 359 370.443 C 359 368.977, 356.534 359.601, 354.018 351.500 C 344.411 320.567, 336.663 293.993, 337.130 293.579 C 337.749 293.029, 359.421 298.126, 360.609 299.101 C 361.236 299.616, 361.777 303.595, 361.852 308.256 C 362.113 324.423, 363.060 352.634, 363.615 360.750 C 364.128 368.244, 364.369 369, 366.249 369 C 368.306 369, 368.315 368.839, 367.641 343.355 C 367.269 329.250, 366.680 313.885, 366.333 309.209 L 365.702 300.708 368.392 301.383 C 369.871 301.755, 373.538 302.978, 376.541 304.101 C 383.372 306.657, 383.276 303.678, 377.926 347.143 C 375.478 367.024, 375.460 369.250, 377.750 368.813 C 378.824 368.608, 379.790 367.130, 380.249 364.989 C 381.346 359.886, 385.997 319.826, 386.015 315.334 C 386.039 309.408, 386.887 308.696, 391.842 310.444 C 394.152 311.259, 397.604 312.667, 399.512 313.573 C 403.527 315.478, 403.601 314.325, 398.317 332 C 391.113 356.096, 388 366.968, 388 368.035 C 388 368.642, 389.007 368.995, 390.238 368.820 C 392.651 368.475, 391.870 370.673, 402.616 334.004 C 405.114 325.482, 407.327 318.340, 407.534 318.132 C 407.950 317.717, 424.666 328.650, 425.379 329.804 C 425.624 330.201, 424.347 332.995, 422.541 336.013 C 409.546 357.724, 402 370.894, 402 371.864 C 402 374.245, 406.664 373.033, 407.895 370.332 C 408.563 368.864, 411.730 363.352, 414.931 358.082 C 418.132 352.812, 422.655 345.189, 424.983 341.143 L 429.214 333.785 434.107 338.605 C 436.798 341.256, 438.996 343.892, 438.991 344.462 C 438.987 345.033, 437.512 347.075, 435.715 349 C 432.589 352.348, 416.921 370.670, 414.182 374.180 C 413.066 375.610, 413.164 376.017, 414.840 376.914 C 416.582 377.846, 418.017 376.559, 427.300 365.734 C 433.070 359.005, 438.955 352.417, 440.378 351.092 L 442.964 348.685 445.232 351.509 C 448.097 355.077, 449.919 358.188, 449.965 359.589 C 449.984 360.187, 444.401 365.362, 437.557 371.089 C 430.713 376.815, 425.236 381.950, 425.385 382.500 C 425.535 383.050, 426.629 383.643, 427.817 383.818 C 429.375 384.047, 433.067 381.395, 441.041 374.318 C 447.126 368.918, 452.451 364.377, 452.874 364.226 C 454.276 363.727, 461.021 379.269, 459.959 380.549 C 459.423 381.196, 456.850 382.840, 454.242 384.203 C 437.655 392.874, 438.756 392.072, 440.614 394.126 C 441.547 395.157, 443.038 396, 443.928 396 C 444.818 396, 450.486 393.252, 456.523 389.893 C 462.560 386.535, 473.575 380.761, 481 377.062 C 488.425 373.364, 496.975 368.972, 500 367.303 C 505.709 364.152, 511.789 360.784, 519.500 356.500 C 524.233 353.870, 526.719 352.502, 544.500 342.739 C 550.550 339.417, 559.325 334.575, 564 331.977 C 568.675 329.380, 587.575 319.038, 606 308.995 C 624.425 298.952, 639.883 290.389, 640.350 289.967 C 641.423 288.998, 636.233 280, 634.601 280 C 633.936 280, 631.263 281.350, 628.661 283 C 626.059 284.650, 623.786 286, 623.609 286 C 623.173 286, 608.240 294.616, 599 300.199 C 594.875 302.692, 588.125 306.660, 584 309.018 C 579.875 311.376, 572.450 315.642, 567.500 318.499 C 557.712 324.147, 483.137 367.661, 478.406 370.483 L 475.500 372.217 478 370.027 C 484.384 364.434, 493.218 356.822, 514.500 338.576 C 527.150 327.730, 539.975 316.705, 543 314.074 C 549.393 308.515, 568.411 292.286, 571.862 289.444 C 573.160 288.375, 574.738 287.050, 575.367 286.500 C 575.995 285.950, 580.108 282.341, 584.505 278.480 C 588.902 274.619, 594.975 269.361, 598 266.796 C 603.240 262.354, 605.332 260.542, 612.742 254.033 L 615.983 251.185 610.354 243.843 C 607.258 239.804, 604.578 236.329, 604.398 236.120 C 604.219 235.910, 601.469 237.960, 598.286 240.673 C 595.104 243.387, 591.287 246.528, 589.806 247.654 C 588.324 248.779, 584.724 251.731, 581.806 254.213 C 578.887 256.695, 569.525 264.495, 561 271.547 C 552.475 278.598, 539.200 289.594, 531.500 295.982 C 523.800 302.370, 514.125 310.341, 510 313.695 C 505.875 317.050, 499.012 322.799, 494.750 326.471 C 490.488 330.144, 487 332.871, 487 332.530 C 487 332.190, 489.137 329.030, 491.750 325.509 C 494.363 321.987, 498.750 316.080, 501.500 312.381 C 504.250 308.682, 508.525 302.818, 511 299.351 C 521.273 284.957, 547.844 248.719, 552.322 242.994 C 552.970 242.166, 558.988 233.977, 565.696 224.795 L 577.892 208.102 572.366 203.051 C 567.061 198.203, 564.548 196.978, 563.833 198.894 C 563.650 199.386, 559.644 203.998, 554.931 209.144 C 550.218 214.290, 543.733 221.425, 540.520 225 C 537.307 228.575, 530.336 236.225, 525.030 242 C 519.723 247.775, 508.949 259.611, 501.087 268.302 C 483.093 288.193, 480.688 290.745, 481.137 289.466 C 481.337 288.897, 493.988 263.582, 509.250 233.211 C 524.513 202.839, 537 177.628, 537 177.186 C 537 176.407, 523.001 167.705, 519.726 166.448 C 518.488 165.973, 516.220 168.738, 510.120 178.163 C 505.728 184.948, 498.616 195.892, 494.317 202.482 C 490.018 209.073, 486.317 214.923, 486.094 215.482 C 485.871 216.042, 483.146 220.325, 480.040 225 C 476.933 229.675, 471.790 237.660, 468.610 242.744 C 465.431 247.828, 462.459 252.216, 462.007 252.496 C 461.555 252.775, 462.678 248.165, 464.503 242.252 C 466.328 236.338, 469.025 227.450, 470.495 222.500 C 471.966 217.550, 474.214 210.125, 475.491 206 C 476.768 201.875, 479.479 192.875, 481.516 186 C 483.552 179.125, 486.519 169.332, 488.109 164.238 C 489.699 159.144, 490.992 154.419, 490.983 153.738 C 490.974 153.057, 488.611 151.512, 485.733 150.304 C 478.727 147.365, 461.954 141.698, 461.580 142.144 C 461.239 142.551, 459.752 146.989, 442.034 200.500 C 434.931 221.950, 429.087 238.825, 429.047 238 C 429.007 237.175, 429.677 228.625, 430.537 219 C 431.396 209.375, 433.400 186.885, 434.991 169.023 C 436.872 147.912, 437.535 136.331, 436.888 135.931 C 436.340 135.592, 431.528 134.562, 426.196 133.642 C 413.596 131.468, 406.002 130.245, 405.991 130.387 C 405.986 130.449, 404.402 141.975, 402.470 156 C 400.539 170.025, 398.520 185.100, 397.983 189.500 C 395.564 209.329, 393.721 221.563, 393.041 222.299 C 392.634 222.738, 391.995 218.688, 391.621 213.299 C 391.246 207.910, 390.281 197.200, 389.477 189.500 C 387.603 171.554, 384.017 133.031, 384.007 130.750 C 384.001 129.166, 382.790 129.017, 371.250 129.175 C 364.238 129.271, 356.587 129.522, 354.250 129.732 M 655.483 157.981 C 657.916 160.670, 656.399 162.382, 648.292 166.095 L 642.009 168.973 638.255 167.028 C 624.716 160.017, 601.946 160.577, 593.871 168.120 C 590.030 171.709, 590.454 173.989, 595.412 176.410 C 599.579 178.444, 614.464 179.246, 620.500 177.762 C 622.150 177.357, 620.301 178.707, 616.392 180.762 C 606.864 185.772, 605.402 186.735, 606.166 187.499 C 607.543 188.876, 618.463 192.832, 619.358 192.278 C 620.251 191.727, 618.019 189.567, 615.608 188.651 C 613.225 187.745, 622.850 182.298, 636.463 176.848 C 641.243 174.934, 641.474 174.928, 642.752 176.676 C 643.902 178.248, 644.205 178.290, 645.024 176.995 C 645.544 176.173, 645.976 174.747, 645.985 173.828 C 645.994 172.784, 647.409 171.699, 649.750 170.941 C 654.428 169.426, 662.579 165.393, 666.374 162.715 L 669.249 160.687 662.874 158.360 C 654.768 155.401, 653.069 155.314, 655.483 157.981 M 607.969 165.476 C 605.478 166.277, 602.214 168.211, 600.718 169.773 C 598.330 172.265, 598.162 172.839, 599.347 174.460 C 601.576 177.508, 612.831 176.799, 622.086 173.028 C 626.164 171.366, 629.612 170.005, 629.750 170.003 C 630.635 169.991, 629.167 172.723, 627.500 174.190 C 625.835 175.655, 626.382 175.584, 630.765 173.770 C 633.661 172.571, 635.878 171.120, 635.692 170.545 C 635.505 169.970, 633.404 168.415, 631.022 167.090 C 625.600 164.073, 614.707 163.310, 607.969 165.476 M 102.004 169.750 C 102.006 170.162, 102.921 171.998, 104.037 173.830 L 106.067 177.159 103.034 180.614 C 101.365 182.515, 100 184.294, 100 184.568 C 100 186.020, 105.179 195, 106.017 195 C 107.245 195, 107.241 194.764, 105.955 191.381 C 104.921 188.662, 106.265 183, 107.944 183 C 108.330 183, 109.660 185.031, 110.899 187.513 C 112.497 190.712, 112.962 192.898, 112.495 195.021 C 111.984 197.351, 112.521 199.126, 114.919 203.023 C 116.613 205.777, 118 208.225, 118 208.463 C 118 208.701, 120.143 212.857, 122.762 217.698 C 125.382 222.539, 128.807 229.537, 130.375 233.250 C 131.942 236.963, 133.589 240, 134.033 240 C 134.477 240, 135.127 238.697, 135.477 237.104 C 135.995 234.745, 134.183 230.249, 125.703 212.854 C 112.096 184.942, 111 182.583, 111 181.210 C 111 179.282, 116.769 176.805, 118.759 177.878 C 123.954 180.678, 128.943 189.919, 128.978 196.806 C 128.996 200.345, 128.457 201.609, 125.953 203.895 C 123.396 206.231, 123.135 206.867, 124.327 207.856 C 128.861 211.619, 132.491 202.532, 130.911 191.374 C 129.796 183.500, 127.277 178.328, 122.524 174.155 C 118.315 170.460, 114.986 170.162, 110.847 173.109 C 109.218 174.269, 107.775 175.057, 107.640 174.859 C 107.505 174.662, 106.621 173.262, 105.674 171.750 C 104.067 169.181, 101.995 168.052, 102.004 169.750 M 33.975 203.565 C 32.713 206.884, 32.799 208.819, 34.372 212.500 L 35.654 215.500 36.308 210.751 C 36.667 208.139, 37.244 204.876, 37.589 203.501 C 38.460 200.032, 35.297 200.089, 33.975 203.565 M 648.197 207.559 C 638.475 210.176, 635 212.828, 635 217.632 C 635 220.047, 635.664 221.389, 637.431 222.547 C 646.241 228.319, 662.564 230.184, 664.316 225.618 C 664.710 224.592, 663.258 224.412, 657.546 224.779 C 648.871 225.335, 643.324 223.805, 641.786 220.430 C 640.959 218.616, 641.034 217.663, 642.103 216.371 C 645.909 211.772, 659 209.040, 659 212.845 C 659 218.036, 673.787 223.938, 680.418 221.393 C 681.288 221.059, 682 219.788, 682 218.567 C 682 214.602, 675.101 209.915, 665.500 207.356 C 659.246 205.690, 654.956 205.740, 648.197 207.559 M 45.796 212.077 C 40.933 218.552, 35.982 229.519, 33.414 239.500 C 27.275 263.367, 34.301 282.460, 51.619 288.969 C 58.357 291.501, 62.739 291.286, 69.233 288.104 C 87.808 279.004, 98.877 248.779, 90.766 229.308 C 83.869 212.750, 71.827 206.705, 60.581 214.154 L 55.820 217.308 52.093 212.981 L 48.366 208.654 45.796 212.077 M 661 211.212 C 661 214.870, 669.693 219.398, 673.799 217.879 C 675.716 217.169, 675.915 216.709, 675.021 215.039 C 673.605 212.394, 671.464 211.342, 665.750 210.485 C 661.954 209.916, 661 210.062, 661 211.212 M 46.235 220.172 C 31.498 241.656, 30.307 262.566, 43.112 274.993 C 56.764 288.242, 71.916 286.322, 83.046 269.932 C 88.445 261.982, 90.173 256.909, 90.348 248.500 C 90.530 239.746, 88.846 233.834, 84.447 227.775 C 78.214 219.189, 65.936 214.401, 60.446 218.416 C 58.544 219.807, 58.550 219.897, 60.818 223.666 C 66.954 233.864, 69.651 243.704, 68.651 252.246 C 68.163 256.412, 61.741 272, 60.512 272 C 60.259 272, 59.341 270.626, 58.473 268.947 C 56.945 265.993, 57.014 265.646, 60.612 258.197 C 65.309 248.475, 66.184 240.456, 63.266 233.888 C 61.335 229.542, 56.453 223, 55.142 223 C 54.768 223, 53.046 225.588, 51.317 228.750 C 45.908 238.639, 45.984 247.276, 51.551 255.480 C 54.448 259.748, 54.291 260.545, 50.861 258.982 C 46.596 257.039, 44 252.018, 44 245.711 C 44 239.288, 47.626 228.490, 51.479 223.438 L 53.904 220.259 51.554 218.051 L 49.204 215.843 46.235 220.172 M 719 243.258 C 719 243.996, 719.523 245.123, 720.163 245.763 C 722.018 247.618, 717.949 248.602, 703 249.917 C 678.752 252.049, 673.158 252.879, 669.109 254.944 C 664.441 257.326, 663.657 258.343, 664.482 260.942 C 665.061 262.767, 672.282 267, 674.816 267 C 676.890 267, 676.090 265.362, 673.421 264.146 C 666.725 261.095, 672.975 259.345, 702.500 256.003 C 722.592 253.729, 730.024 252.251, 729.962 250.543 C 729.903 248.930, 719 241.684, 719 243.258 M 688.032 289.520 C 683.933 291.372, 683.036 292.569, 683.015 296.215 C 682.965 305.087, 708.290 317.661, 716.913 313.047 C 720.022 311.383, 721.044 308.058, 719.424 304.885 C 717.346 300.816, 708.193 297.260, 706.568 299.890 C 706.265 300.380, 707.543 301.067, 709.408 301.417 C 716.222 302.695, 716.776 307.355, 710.244 308.459 C 702.587 309.752, 689.484 304.775, 688.318 300.129 C 687.118 295.351, 692.091 293.322, 703.500 293.935 C 711.834 294.383, 719.978 300.490, 722.575 308.239 C 723.290 310.372, 724.417 311.610, 725.834 311.820 C 730.507 312.509, 727.428 305.307, 720.407 299.127 C 710.580 290.477, 695.693 286.059, 688.032 289.520 M 646.500 335.973 C 635.029 340.012, 584.691 356.577, 546 369.045 C 533.625 373.033, 514.950 379.084, 504.500 382.491 C 494.050 385.898, 477.288 391.310, 467.250 394.518 C 457.212 397.725, 449 400.868, 449 401.501 C 449 402.134, 450.039 403.628, 451.309 404.821 L 453.619 406.991 461.059 404.594 C 465.152 403.275, 476.375 399.715, 486 396.683 C 504.138 390.967, 525.915 384.098, 556 374.602 C 565.625 371.564, 593.469 362.779, 617.875 355.081 C 642.281 347.383, 662.420 340.913, 662.629 340.705 C 663.473 339.860, 660.202 332.486, 658.901 332.300 C 658.130 332.190, 652.550 333.843, 646.500 335.973 M 663.917 389.390 C 663.688 389.605, 657.875 390.304, 651 390.945 C 644.125 391.585, 630.400 393.014, 620.500 394.120 C 599.992 396.411, 567.482 399.869, 532.500 403.482 C 519.300 404.845, 502.875 406.613, 496 407.411 C 489.125 408.209, 477.762 409.421, 470.750 410.103 C 463.738 410.786, 458.015 411.604, 458.033 411.922 C 458.052 412.240, 458.953 413.564, 460.036 414.864 L 462.005 417.228 473.752 416.080 C 480.214 415.449, 495.625 413.831, 508 412.484 C 546.165 408.332, 586.205 404.046, 592.500 403.438 C 595.800 403.120, 607.950 401.790, 619.500 400.483 C 638.479 398.335, 671.369 394.976, 673.250 394.993 C 673.663 394.997, 674 393.650, 674 392 C 674 389.080, 673.870 389, 669.167 389 C 666.508 389, 664.146 389.176, 663.917 389.390 M 365.500 394.426 C 357.471 396.704, 355.758 397.543, 350.257 401.891 C 345.269 405.834, 338 415.179, 338 417.649 C 338 418.296, 343.691 422.239, 350.647 426.413 L 363.294 434 349.706 434 C 342.233 434, 335.920 434.337, 335.677 434.750 C 334.317 437.066, 340.529 452.696, 344.755 457.588 C 351.201 465.051, 364.172 471, 374 471 C 384.898 471, 397.783 464.786, 404.342 456.367 L 407.934 451.757 402.217 448.065 C 399.073 446.034, 393.350 442.601, 389.500 440.436 L 382.500 436.500 397.750 436.224 L 413 435.948 413 431.579 C 413 421.251, 406.906 408.913, 398.234 401.687 C 389.890 394.733, 375.595 391.562, 365.500 394.426 M 258 430.088 C 247.275 430.516, 216.675 431.562, 190 432.413 C 92.256 435.532, 75.454 436.134, 73.187 436.597 C 71.347 436.973, 70.938 437.626, 71.187 439.785 L 71.500 442.500 81 442.226 C 86.225 442.075, 108.950 441.306, 131.500 440.517 C 154.050 439.728, 197.025 438.330, 227 437.411 C 256.975 436.491, 281.560 435.685, 281.633 435.619 C 281.706 435.554, 282.080 434.038, 282.463 432.250 C 283.124 429.163, 283.017 429.008, 280.329 429.155 C 278.773 429.240, 268.725 429.660, 258 430.088 M 468.750 431.563 C 468.337 431.987, 468 433.334, 468 434.557 C 468 436.684, 468.495 436.812, 479.250 437.469 C 502.297 438.877, 565.961 443.066, 624.500 447.025 C 679.953 450.775, 677 450.767, 677 447.177 L 677 444.354 652.250 442.625 C 638.638 441.674, 617.375 440.233, 605 439.423 C 592.625 438.613, 562.475 436.628, 538 435.010 C 479.165 431.122, 469.641 430.648, 468.750 431.563 M 258 447.582 C 244.525 451.108, 230.800 454.624, 227.500 455.395 C 224.200 456.166, 207.325 460.443, 190 464.899 C 172.675 469.354, 144.550 476.587, 127.500 480.972 C 110.450 485.357, 92.295 489.960, 87.156 491.201 L 77.812 493.457 78.363 496.852 C 78.667 498.720, 79.099 500.432, 79.325 500.658 C 79.550 500.883, 92.282 497.867, 107.617 493.955 C 122.953 490.043, 138.875 486.016, 143 485.005 C 147.125 483.994, 157.475 481.361, 166 479.153 C 200.927 470.110, 229.822 462.721, 235 461.510 C 238.025 460.802, 248.375 458.151, 258 455.618 C 267.625 453.085, 276.625 450.770, 278 450.473 C 280.976 449.831, 265.306 457.727, 248.500 465.338 C 241.900 468.326, 227.500 474.919, 216.500 479.987 C 194.129 490.295, 192.648 490.980, 171.253 500.918 C 162.867 504.813, 155.825 508, 155.605 508 C 155.384 508, 150.095 510.415, 143.852 513.367 C 137.608 516.318, 122.993 523.103, 111.372 528.444 L 90.245 538.156 92.372 543.576 C 93.543 546.557, 94.972 548.997, 95.550 548.998 C 96.387 549, 128.964 534.206, 173.500 513.599 C 176.250 512.327, 192.450 504.860, 209.500 497.007 C 226.550 489.153, 243.331 481.407, 246.791 479.793 C 259.809 473.721, 294.559 457.821, 296 457.278 C 296.825 456.967, 295.303 458.991, 292.618 461.775 C 289.933 464.558, 287.233 466.647, 286.618 466.416 C 286.003 466.186, 283.839 467.460, 281.808 469.248 C 279.777 471.037, 274.827 475.055, 270.808 478.178 C 266.789 481.302, 252.475 492.515, 239 503.098 C 225.525 513.681, 211.575 524.595, 208 527.353 C 204.425 530.110, 199.193 534.196, 196.374 536.433 C 186.139 544.552, 166.023 560.359, 144 577.586 C 131.625 587.266, 121.123 595.544, 120.662 595.981 C 120.201 596.418, 121.082 598.739, 122.620 601.138 C 124.158 603.537, 125.511 605.650, 125.626 605.834 C 125.741 606.018, 130.400 602.868, 135.979 598.834 C 141.559 594.800, 147.392 590.600, 148.942 589.500 C 150.492 588.400, 153.952 585.947, 156.630 584.050 C 159.309 582.152, 169.768 574.579, 179.873 567.221 C 189.977 559.863, 200.327 552.376, 202.873 550.583 C 205.418 548.791, 212.900 543.403, 219.500 538.611 C 226.100 533.819, 234.145 528.008, 237.378 525.699 C 243.625 521.237, 246.749 518.987, 252.147 515.061 L 255.500 512.622 253.509 515.061 C 252.414 516.402, 249.714 519.539, 247.509 522.031 C 245.304 524.522, 241.437 529.022, 238.916 532.031 C 236.395 535.039, 226.047 547.175, 215.921 559 C 205.796 570.825, 196.608 581.591, 195.505 582.925 C 194.402 584.259, 191.475 587.653, 189 590.467 C 183.013 597.275, 178.279 602.794, 173.861 608.116 C 165.264 618.473, 162.178 622.101, 156.750 628.229 C 153.588 631.800, 151 635.136, 151 635.642 C 151 636.148, 153.698 639.233, 156.996 642.496 L 162.992 648.429 166.746 644.311 C 170.198 640.524, 210.198 599.545, 251.970 557 C 261.420 547.375, 268.797 540.175, 268.363 541 C 267.929 541.825, 265.940 544.975, 263.945 548 C 256.736 558.925, 239.071 585.920, 225.989 606 C 218.644 617.275, 207.115 634.923, 200.370 645.217 C 186.052 667.068, 185.835 667.446, 186.564 669.178 C 187.239 670.779, 204.665 683.895, 206.214 683.967 C 206.606 683.985, 209.116 680.737, 211.790 676.750 C 221.560 662.185, 244.591 628.105, 254.872 613 C 260.674 604.475, 268.542 592.878, 272.356 587.228 C 276.169 581.579, 279.436 577.102, 279.614 577.281 C 279.793 577.460, 278.594 581.182, 276.951 585.553 C 275.307 589.924, 273.118 595.750, 272.086 598.500 C 271.054 601.250, 268.346 608.675, 266.067 615 C 263.789 621.325, 261.279 628.075, 260.490 630 C 259.701 631.925, 256.835 639.575, 254.121 647 C 251.407 654.425, 248.717 661.625, 248.145 663 C 247.572 664.375, 245.457 669.775, 243.446 675 C 241.434 680.225, 238.486 687.731, 236.894 691.680 C 235.302 695.630, 234 699.355, 234 699.959 C 234 701.345, 254.395 711.100, 257.773 711.330 C 260.135 711.490, 260.793 710.266, 268.701 691 C 273.330 679.725, 277.696 668.925, 278.404 667 C 279.112 665.075, 283.208 654.950, 287.506 644.500 C 291.803 634.050, 296.582 622.350, 298.125 618.500 C 299.668 614.650, 300.947 612.006, 300.966 612.623 C 300.985 613.241, 298.279 629.891, 294.953 649.623 C 291.627 669.356, 287.582 693.357, 285.964 702.960 C 284.345 712.564, 283.383 720.783, 283.826 721.226 C 284.848 722.248, 310.740 728.960, 313.750 728.983 C 314.988 728.992, 316 728.766, 316 728.480 C 316 727.745, 321.636 699.275, 323.914 688.500 C 324.961 683.550, 326.840 673.739, 328.090 666.699 C 329.340 659.658, 330.671 654.483, 331.047 655.199 C 331.423 655.914, 332.259 672.250, 332.905 691.500 C 333.551 710.750, 334.295 727.901, 334.559 729.613 C 335.009 732.531, 335.367 732.767, 340.270 733.384 C 343.146 733.746, 352.363 734.328, 360.750 734.676 L 376 735.310 376.104 727.905 C 376.353 710.070, 378.644 671.747, 379.266 675 C 380.160 679.670, 385.447 710.979, 387.453 723.477 C 388.334 728.965, 389.404 733.804, 389.830 734.230 C 391.003 735.403, 429.214 731.120, 430.684 729.650 C 430.797 729.536, 430.464 727.656, 429.944 725.472 C 429.040 721.677, 426.240 709.352, 422.110 691 C 421.058 686.325, 420.312 682.378, 420.453 682.229 C 420.762 681.901, 425.930 693.593, 436.042 717.500 C 438.368 723, 440.368 727.620, 440.485 727.766 C 441.186 728.639, 472.525 719.088, 485.247 714.123 L 487.995 713.051 486.116 709.776 C 483.104 704.527, 477.647 695.709, 475.749 693.027 C 473.483 689.824, 473.485 688.135, 475.753 690.597 C 476.718 691.644, 481.607 696.459, 486.618 701.299 L 495.730 710.098 511.281 702.175 C 546.138 684.415, 569.610 666.194, 592.041 639.481 C 599.803 630.238, 615.127 609.936, 618.562 604.346 C 619.628 602.611, 622.638 597.985, 625.250 594.065 C 627.863 590.145, 630 586.684, 630 586.373 C 630 586.063, 630.839 584.614, 631.864 583.154 C 635.509 577.962, 650.316 550.024, 655.794 538 C 663.788 520.458, 670.115 502.782, 668.853 501.520 C 668.606 501.273, 662.078 499.722, 654.345 498.073 C 646.612 496.425, 606.808 486.706, 565.892 476.476 C 524.977 466.246, 487 456.808, 481.500 455.504 C 476 454.199, 469.164 452.474, 466.309 451.672 C 461.444 450.304, 461.010 450.331, 459.398 452.112 C 458.453 453.157, 457.864 454.162, 458.089 454.344 C 458.791 454.912, 624.790 496, 626.380 496 C 629.901 496, 628.586 498.138, 622.257 502.704 C 606.565 514.024, 585.376 526.281, 581.500 526.281 C 579.628 526.281, 564.782 519.504, 542 508.249 C 461.670 468.566, 449.711 462.889, 448.662 463.938 C 448.096 464.504, 447.828 465.149, 448.067 465.373 C 448.305 465.596, 457.050 469.940, 467.500 475.026 C 484.691 483.392, 516.986 499.207, 561.911 521.257 L 578.321 529.312 571.411 532.802 C 567.610 534.722, 558.907 538.708, 552.071 541.659 L 539.642 547.026 533.071 542.535 C 524.833 536.905, 500.830 520.095, 495.500 516.224 C 490.954 512.921, 468.612 497.163, 465.346 494.956 C 464.161 494.155, 457.029 489.087, 449.496 483.694 C 436.560 474.431, 432.285 472.502, 431.342 475.500 C 431.169 476.050, 436.309 480.174, 442.764 484.665 C 453.037 491.813, 473.592 506.286, 502 526.375 C 511.650 533.198, 517.908 537.587, 526.928 543.853 C 530.374 546.247, 532.813 548.564, 532.347 549.002 C 531.305 549.981, 507.257 557.658, 499.899 559.361 C 497.038 560.024, 497.770 560.727, 461.503 522.443 C 452.155 512.574, 441.729 501.575, 438.333 498 C 434.938 494.425, 429.762 488.909, 426.830 485.742 C 423.899 482.575, 420.938 479.987, 420.250 479.992 C 418.911 480.001, 418.500 482.611, 419.750 483.167 C 420.493 483.497, 438.122 501.965, 474.457 540.479 L 493.306 560.458 489.903 561.184 C 482.585 562.747, 464.204 565.163, 462.087 564.841 C 460.327 564.572, 454.687 555.887, 435.566 524 C 415.832 491.091, 410.925 483.565, 409.390 483.845 C 408.350 484.035, 407.321 484.364, 407.101 484.577 C 406.758 484.910, 416.770 502.226, 423.534 513 C 424.742 514.925, 427.448 519.425, 429.546 523 C 431.644 526.575, 436.929 535.350, 441.290 542.500 C 452.857 561.467, 455 565.079, 455 565.611 C 455 565.874, 449.345 566.021, 442.433 565.937 L 429.865 565.785 428.473 562.643 C 427.708 560.914, 424.640 553.200, 421.657 545.500 C 418.674 537.800, 413.318 524.075, 409.755 515 C 406.193 505.925, 402.213 495.706, 400.910 492.291 C 399.137 487.643, 398.104 486.149, 396.797 486.349 C 395.837 486.495, 394.826 486.841, 394.549 487.117 C 394.097 487.570, 403.880 513.724, 407.518 521.784 C 408.333 523.590, 409 525.490, 409 526.007 C 409 526.523, 410.078 529.320, 411.395 532.223 C 415.850 542.037, 424.086 564.248, 423.491 564.843 C 422.901 565.433, 403.513 562.435, 402.042 561.526 C 401.614 561.262, 400.522 557.323, 399.614 552.773 C 395.174 530.526, 387 488.841, 387 488.446 C 387 488.201, 386.325 488, 385.500 488 C 384.675 488, 384 488.183, 384 488.407 C 384 488.881, 392.039 530.025, 395.529 547.410 C 396.844 553.961, 397.713 559.656, 397.460 560.065 C 396.907 560.960, 388.199 558.797, 378.250 555.294 L 371 552.741 371 520.787 C 371 495.669, 370.733 488.922, 369.750 489.250 C 368.794 489.568, 368.438 496.892, 368.235 520.396 C 367.972 551.029, 367.964 551.123, 365.886 550.464 C 360.234 548.670, 352.867 544.818, 352.310 543.364 C 351.965 542.466, 352.221 538.305, 352.879 534.116 C 354.477 523.936, 358.991 490.824, 358.996 489.250 C 359.002 487.329, 355.198 487.768, 354.657 489.750 C 354.394 490.712, 353.689 495.100, 353.090 499.500 C 350.566 518.056, 347.833 536.657, 347.317 538.788 C 346.782 541.003, 346.681 541.023, 344.132 539.404 C 337.532 535.212, 333.059 531.363, 333.031 529.850 C 333.001 528.262, 338.013 514.331, 341.971 505 C 347.777 491.312, 349.182 486.731, 347.837 485.879 C 345.564 484.440, 344.722 485.389, 341.906 492.562 C 340.408 496.378, 337.084 504.877, 334.520 511.449 C 327.600 529.182, 328.804 528.233, 321.900 521.402 C 318.655 518.190, 316 515.217, 316 514.795 C 316 514.372, 320.280 507.158, 325.511 498.763 C 330.742 490.368, 335.051 483.061, 335.086 482.525 C 335.327 478.850, 331.927 482.931, 323.484 496.449 C 318.142 505.002, 313.612 512, 313.418 512 C 313.224 512, 311.166 509.484, 308.844 506.410 C 305.881 502.486, 304.903 500.432, 305.562 499.516 C 308.153 495.916, 322.585 478.406, 323.470 477.789 C 324.095 477.355, 323.717 476.506, 322.495 475.601 C 320.120 473.840, 320.805 473.246, 310.509 486 C 306.291 491.225, 302.401 495.500, 301.864 495.500 C 300.836 495.500, 295.364 486.222, 296.082 485.697 C 296.312 485.529, 300.393 481.974, 305.150 477.796 C 311.443 472.271, 313.501 469.901, 312.700 469.100 C 310.824 467.224, 309.690 467.800, 302.076 474.500 C 298.014 478.075, 294.331 481, 293.892 481 C 293.453 481, 292.191 478.960, 291.088 476.466 L 289.083 471.933 295.041 466.299 C 298.319 463.200, 300.994 460.403, 300.986 460.083 C 300.978 459.762, 299.192 457.527, 297.017 455.115 C 294.842 452.704, 291.586 448.553, 289.781 445.891 C 287.635 442.725, 285.808 441.072, 284.500 441.112 C 283.400 441.144, 271.475 444.056, 258 447.582" stroke="none" fill="#7ec1a3" fill-rule="evenodd"/><path d="M -0 384.001 L -0 768.003 384.250 767.751 L 768.500 767.500 768.751 383.750 L 769.003 0 384.501 0 L 0 0 -0 384.001 M 0.495 384.500 C 0.495 595.700, 0.610 681.951, 0.750 576.169 C 0.890 470.386, 0.890 297.586, 0.750 192.169 C 0.610 86.751, 0.495 173.300, 0.495 384.500 M 439.326 52.023 C 433.348 53.236, 429.687 55.379, 425.761 59.966 C 420.355 66.282, 418.305 76.944, 421.197 83.703 C 427.185 97.696, 441.511 104.860, 458.046 102.130 C 465.624 100.878, 477.523 95.863, 486.446 90.161 C 489.166 88.422, 491.656 87, 491.980 87 C 493.106 87, 491.032 105.989, 489.508 109.636 C 487.790 113.747, 488.254 115.033, 490.798 113.208 C 491.734 112.537, 493.155 111.681, 493.956 111.308 C 494.756 110.934, 496.106 110.056, 496.956 109.358 C 500.749 106.237, 523.535 90.317, 523.844 90.572 C 524.034 90.728, 521.963 95.050, 519.242 100.178 C 514.211 109.660, 509.759 120.426, 510.544 121.211 C 510.783 121.449, 513.345 121.307, 516.239 120.895 C 519.132 120.483, 522.288 120.113, 523.250 120.073 C 526.058 119.956, 525.264 118.163, 522.250 117.816 C 519.976 117.555, 519.548 117.068, 519.779 115 C 520.174 111.450, 530.404 91.058, 534.706 85.244 C 540.479 77.442, 548.542 73.115, 553.672 75.065 C 555.742 75.852, 556.094 76.488, 555.586 78.515 C 554.581 82.516, 556.776 81.422, 560.022 76.304 C 561.660 73.722, 563 71.247, 563 70.804 C 563 69.527, 553.746 69.871, 548.909 71.328 C 546.484 72.059, 539.445 76.221, 533.268 80.578 C 514.723 93.657, 500.701 103.450, 499.278 104.318 C 498.170 104.993, 498.057 103, 498.628 92.884 L 499.321 80.632 505.189 74.566 C 513.485 65.990, 516.903 58.303, 513.800 55.200 C 508.891 50.291, 498.034 61.663, 494.422 75.500 C 493.416 79.350, 492.026 83.079, 491.331 83.788 C 488.178 87.002, 474.888 94.239, 469 95.948 C 458.340 99.043, 454.795 99.290, 447.348 97.457 C 440.152 95.686, 436.056 93.635, 431.759 89.652 C 423.369 81.877, 422.602 66.558, 430.240 59.324 C 440.881 49.247, 456.131 54.841, 470.022 73.917 C 472.458 77.263, 475.216 80, 476.150 80 C 479.279 80, 488 77.666, 488 76.828 C 488 76.373, 486.284 76, 484.187 76 C 480.073 76, 478.509 74.709, 472.002 65.941 C 464.072 55.257, 450.946 49.666, 439.326 52.023 M 504.211 62.199 C 502.232 65.438, 500.017 72.132, 500.006 74.903 C 499.993 78.093, 508.593 65.913, 509.159 61.938 C 509.697 58.165, 506.573 58.329, 504.211 62.199 M 300.943 66.859 C 290.584 72.041, 283.365 79.011, 277.456 89.535 C 271.986 99.278, 271.727 112, 276.998 112 C 279.586 112, 287.014 105.204, 290.994 99.195 L 294.039 94.598 293.770 100.450 C 293.603 104.078, 293.923 106.450, 294.613 106.689 C 296.216 107.246, 306.184 99.106, 305.417 97.866 C 304.976 97.152, 304.433 97.167, 303.687 97.913 C 303.089 98.511, 301.953 99, 301.162 99 C 299.985 99, 299.849 97.774, 300.414 92.250 C 300.967 86.844, 300.855 85.749, 299.852 86.750 C 298.380 88.219, 296.614 88.433, 297.477 87.038 C 297.804 86.508, 298.114 83.958, 298.166 81.369 C 298.237 77.848, 297.788 76.318, 296.385 75.292 C 294.766 74.109, 294.714 73.792, 296.005 72.975 C 296.827 72.455, 299.075 71.769, 301 71.451 C 306.624 70.522, 309 69.206, 309 67.021 C 309 64.458, 305.869 64.395, 300.943 66.859 M 288.088 79.147 C 283.321 83.726, 279.383 91.262, 278.428 97.629 C 277.755 102.123, 279.170 106, 281.484 106 C 283.397 106, 287.368 100.621, 290.489 93.806 C 293.125 88.047, 295.108 75, 293.346 75 C 292.827 75, 290.461 76.866, 288.088 79.147 M 239.457 84.863 C 230.685 90.213, 224.029 104.064, 224.015 117 C 224.003 127.456, 228.555 132.843, 234.700 129.647 C 238.439 127.702, 241.300 124.442, 244.043 119 C 246.831 113.467, 248.090 108.229, 247.345 105.250 C 246.550 102.065, 245 102.455, 245 105.841 C 245 110.660, 242.250 118.129, 239.370 121.136 C 232.767 128.028, 228.389 122.430, 229.269 108.221 C 229.671 101.738, 230.290 99.200, 232.123 96.526 C 236.177 90.609, 241.926 89.745, 240.607 95.250 C 240.374 96.221, 240.755 97, 241.463 97 C 242.780 97, 243.970 91.939, 243.989 86.250 C 244.002 82.484, 243.573 82.353, 239.457 84.863 M 183.485 99.048 C 182.851 101.046, 184.403 104, 186.087 104 C 187.460 104, 189.042 100.272, 188.389 98.572 C 187.523 96.316, 184.251 96.633, 183.485 99.048 M 184.569 114.594 C 180.737 120.365, 180.467 122.697, 184 119.500 C 185.107 118.498, 186.206 117.873, 186.443 118.110 C 186.680 118.347, 187.607 124.157, 188.502 131.020 C 189.397 137.884, 191.014 145.500, 192.095 147.945 L 194.060 152.390 197.941 146.956 C 201.775 141.589, 202.428 138.397, 199.072 141.435 C 198.121 142.296, 197.091 143, 196.783 143 C 196.033 143, 195.254 138.495, 193.944 126.588 C 192.903 117.120, 190.635 109, 189.033 109 C 188.621 109, 186.612 111.517, 184.569 114.594 M 566.500 125.340 C 560.038 127.022, 555.468 129.452, 551.895 133.107 C 543.499 141.697, 550.444 149.103, 565.405 147.512 C 581.579 145.793, 591.555 138.172, 587.021 131 C 585.608 128.764, 574.639 128.933, 572.345 131.226 C 569.924 133.647, 571.104 134.280, 574.990 132.646 C 578.732 131.073, 582 131.546, 582 133.662 C 582 137.239, 572.920 143.113, 564.460 145.009 C 560.600 145.874, 559.319 145.784, 557.374 144.509 C 553.701 142.103, 554.329 138.740, 559.250 134.458 C 568.654 126.277, 577.705 124.848, 587.497 129.998 C 593.209 133.003, 595 133.113, 595 130.461 C 595 125.955, 576.743 122.674, 566.500 125.340 M 145.583 129.909 C 144.138 131.505, 144.027 132.439, 144.905 135.618 C 145.829 138.963, 145.697 139.694, 143.807 141.706 C 141.443 144.221, 142.018 146.060, 144.518 143.985 C 145.433 143.226, 146.410 143.063, 146.865 143.592 C 147.294 144.092, 148.890 149.675, 150.410 156 C 154.645 173.610, 156.675 177.421, 161.191 176.240 C 163.122 175.735, 168 167.349, 168 164.533 C 168 161.951, 166.438 162.824, 164.930 166.250 C 162.341 172.132, 160.839 170.415, 156.835 157 C 151.449 138.950, 151.309 137.683, 154.470 135.611 C 155.897 134.677, 156.780 133.453, 156.433 132.891 C 156.035 132.247, 155.162 132.448, 154.072 133.435 C 151.430 135.825, 150.285 135.334, 149.566 131.500 C 148.818 127.514, 148.033 127.201, 145.583 129.909 M 354.250 129.732 C 351.913 129.943, 350 130.247, 350 130.408 C 350 130.569, 348.880 140.556, 347.511 152.601 C 346.142 164.645, 345.017 176.188, 345.011 178.250 C 345 182.112, 343.525 183.351, 342.630 180.250 C 342.352 179.287, 340.039 171.075, 337.490 162 C 334.941 152.925, 331.991 142.538, 330.935 138.917 L 329.015 132.334 317.257 134.538 C 302.368 137.329, 295.549 139.024, 293.249 140.507 C 293.111 140.596, 294.343 149.406, 295.987 160.085 C 297.631 170.763, 299.183 180.995, 299.437 182.822 L 299.898 186.144 297.580 182.822 C 296.305 180.995, 290.410 172.027, 284.479 162.894 L 273.696 146.287 269.598 147.584 C 257.903 151.283, 239 160.395, 239 162.332 C 239 163.657, 245.497 182.377, 246.545 184.073 C 248.414 187.097, 244.369 183.837, 236.371 175.871 L 227.204 166.743 218.352 172.074 C 210.144 177.017, 196.368 186.530, 191.359 190.712 L 189.218 192.500 192.608 201.500 C 197.781 215.234, 197.747 214.966, 193.865 211.467 C 188.289 206.441, 180.187 200, 179.441 200 C 177.329 200, 153.007 224.855, 140.298 240 C 126.506 256.435, 114.683 274.397, 104.549 294.307 C 95.556 311.978, 87.392 331.866, 88.684 332.957 C 89.133 333.336, 100.525 337.949, 114 343.207 C 163.286 362.442, 180.718 369.345, 185.715 371.606 C 187.483 372.406, 200.533 377.732, 214.715 383.442 C 228.897 389.151, 245.450 395.849, 251.500 398.325 C 257.550 400.801, 266.775 404.499, 272 406.543 C 277.225 408.587, 283.170 411.101, 285.210 412.130 C 290.031 414.560, 292.664 414.495, 294.046 411.914 C 295.356 409.466, 295.030 409.024, 290.731 407.434 C 286.892 406.014, 230.187 383.014, 209 374.283 C 204.325 372.357, 197.800 369.730, 194.500 368.446 C 180.255 362.903, 146.924 349.257, 146.435 348.769 C 145.474 347.807, 169.866 331.938, 183.713 324.516 C 188.749 321.817, 189.016 321.780, 191.528 323.426 C 192.959 324.364, 203.100 330.276, 214.065 336.565 C 252.483 358.601, 273.544 370.733, 278.553 373.711 C 281.331 375.363, 285.606 377.846, 288.053 379.228 C 290.499 380.610, 296.511 384.071, 301.412 386.919 C 309.942 391.874, 314.500 393.012, 314.500 390.186 C 314.500 389.463, 311.889 387.438, 308.697 385.686 C 299.234 380.490, 266.785 361.879, 263 359.476 C 259.662 357.357, 243.824 348.197, 210.129 328.897 C 201.676 324.054, 194.523 319.857, 194.235 319.569 C 192.941 318.274, 229.512 303.592, 231.326 304.679 C 232.390 305.317, 236.999 309.391, 255.446 326 C 258.806 329.025, 264.692 334.244, 268.527 337.598 C 285.185 352.164, 313.845 377.554, 317.713 381.171 C 321.305 384.529, 322.227 384.949, 323.963 384.020 C 325.083 383.420, 325.978 382.608, 325.951 382.215 C 325.925 381.822, 323.562 379.578, 320.701 377.230 C 314.788 372.376, 312.946 370.767, 297.009 356.546 C 290.679 350.897, 275.390 337.326, 263.034 326.387 C 250.678 315.449, 239.517 305.526, 238.231 304.336 L 235.894 302.173 241.197 300.686 C 244.114 299.869, 250.933 298.155, 256.351 296.879 L 266.202 294.558 268.003 297.029 C 268.993 298.388, 277.160 308.723, 286.152 319.996 C 295.143 331.269, 303.175 341.468, 304 342.661 C 307.423 347.610, 333.189 378.999, 333.818 378.985 C 334.193 378.976, 335.107 378.584, 335.850 378.114 C 337.179 377.272, 335.296 373.968, 329.800 367.500 C 316.930 352.353, 272.064 294.536, 272.692 293.908 C 273.578 293.022, 295.996 290.949, 297.189 291.642 C 297.567 291.862, 299.320 294.620, 301.084 297.771 C 309.284 312.420, 323.037 337.299, 328.021 346.500 C 341.974 372.260, 343.053 374, 345.086 374 C 346.139 374, 347 373.417, 347 372.705 C 347 371.993, 339.221 357.255, 329.714 339.955 C 320.207 322.655, 310.252 304.505, 307.592 299.623 L 302.756 290.745 315.628 291.439 C 322.708 291.820, 329.256 292.348, 330.181 292.611 C 331.105 292.875, 332.168 294.533, 332.544 296.295 C 332.919 298.058, 334.252 302.650, 335.504 306.500 C 336.757 310.350, 339.672 320.025, 341.983 328 C 344.293 335.975, 346.993 344.975, 347.981 348 C 348.970 351.025, 350.968 357.438, 352.421 362.250 C 354.578 369.390, 355.427 371, 357.032 371 C 358.115 371, 359 370.749, 359 370.443 C 359 368.977, 356.534 359.601, 354.018 351.500 C 344.411 320.567, 336.663 293.993, 337.130 293.579 C 337.749 293.029, 359.421 298.126, 360.609 299.101 C 361.236 299.616, 361.777 303.595, 361.852 308.256 C 362.113 324.423, 363.060 352.634, 363.615 360.750 C 364.128 368.244, 364.369 369, 366.249 369 C 368.306 369, 368.315 368.839, 367.641 343.355 C 367.269 329.250, 366.680 313.885, 366.333 309.209 L 365.702 300.708 368.392 301.383 C 369.871 301.755, 373.538 302.978, 376.541 304.101 C 383.372 306.657, 383.276 303.678, 377.926 347.143 C 375.478 367.024, 375.460 369.250, 377.750 368.813 C 378.824 368.608, 379.790 367.130, 380.249 364.989 C 381.346 359.886, 385.997 319.826, 386.015 315.334 C 386.039 309.408, 386.887 308.696, 391.842 310.444 C 394.152 311.259, 397.604 312.667, 399.512 313.573 C 403.527 315.478, 403.601 314.325, 398.317 332 C 391.113 356.096, 388 366.968, 388 368.035 C 388 368.642, 389.007 368.995, 390.238 368.820 C 392.651 368.475, 391.870 370.673, 402.616 334.004 C 405.114 325.482, 407.327 318.340, 407.534 318.132 C 407.950 317.717, 424.666 328.650, 425.379 329.804 C 425.624 330.201, 424.347 332.995, 422.541 336.013 C 409.546 357.724, 402 370.894, 402 371.864 C 402 374.245, 406.664 373.033, 407.895 370.332 C 408.563 368.864, 411.730 363.352, 414.931 358.082 C 418.132 352.812, 422.655 345.189, 424.983 341.143 L 429.214 333.785 434.107 338.605 C 436.798 341.256, 438.996 343.892, 438.991 344.462 C 438.987 345.033, 437.512 347.075, 435.715 349 C 432.589 352.348, 416.921 370.670, 414.182 374.180 C 413.066 375.610, 413.164 376.017, 414.840 376.914 C 416.582 377.846, 418.017 376.559, 427.300 365.734 C 433.070 359.005, 438.955 352.417, 440.378 351.092 L 442.964 348.685 445.232 351.509 C 448.097 355.077, 449.919 358.188, 449.965 359.589 C 449.984 360.187, 444.401 365.362, 437.557 371.089 C 430.713 376.815, 425.236 381.950, 425.385 382.500 C 425.535 383.050, 426.629 383.643, 427.817 383.818 C 429.375 384.047, 433.067 381.395, 441.041 374.318 C 447.126 368.918, 452.451 364.377, 452.874 364.226 C 454.276 363.727, 461.021 379.269, 459.959 380.549 C 459.423 381.196, 456.850 382.840, 454.242 384.203 C 437.655 392.874, 438.756 392.072, 440.614 394.126 C 441.547 395.157, 443.038 396, 443.928 396 C 444.818 396, 450.486 393.252, 456.523 389.893 C 462.560 386.535, 473.575 380.761, 481 377.062 C 488.425 373.364, 496.975 368.972, 500 367.303 C 505.709 364.152, 511.789 360.784, 519.500 356.500 C 524.233 353.870, 526.719 352.502, 544.500 342.739 C 550.550 339.417, 559.325 334.575, 564 331.977 C 568.675 329.380, 587.575 319.038, 606 308.995 C 624.425 298.952, 639.883 290.389, 640.350 289.967 C 641.423 288.998, 636.233 280, 634.601 280 C 633.936 280, 631.263 281.350, 628.661 283 C 626.059 284.650, 623.786 286, 623.609 286 C 623.173 286, 608.240 294.616, 599 300.199 C 594.875 302.692, 588.125 306.660, 584 309.018 C 579.875 311.376, 572.450 315.642, 567.500 318.499 C 557.712 324.147, 483.137 367.661, 478.406 370.483 L 475.500 372.217 478 370.027 C 484.384 364.434, 493.218 356.822, 514.500 338.576 C 527.150 327.730, 539.975 316.705, 543 314.074 C 549.393 308.515, 568.411 292.286, 571.862 289.444 C 573.160 288.375, 574.738 287.050, 575.367 286.500 C 575.995 285.950, 580.108 282.341, 584.505 278.480 C 588.902 274.619, 594.975 269.361, 598 266.796 C 603.240 262.354, 605.332 260.542, 612.742 254.033 L 615.983 251.185 610.354 243.843 C 607.258 239.804, 604.578 236.329, 604.398 236.120 C 604.219 235.910, 601.469 237.960, 598.286 240.673 C 595.104 243.387, 591.287 246.528, 589.806 247.654 C 588.324 248.779, 584.724 251.731, 581.806 254.213 C 578.887 256.695, 569.525 264.495, 561 271.547 C 552.475 278.598, 539.200 289.594, 531.500 295.982 C 523.800 302.370, 514.125 310.341, 510 313.695 C 505.875 317.050, 499.012 322.799, 494.750 326.471 C 490.488 330.144, 487 332.871, 487 332.530 C 487 332.190, 489.137 329.030, 491.750 325.509 C 494.363 321.987, 498.750 316.080, 501.500 312.381 C 504.250 308.682, 508.525 302.818, 511 299.351 C 521.273 284.957, 547.844 248.719, 552.322 242.994 C 552.970 242.166, 558.988 233.977, 565.696 224.795 L 577.892 208.102 572.366 203.051 C 567.061 198.203, 564.548 196.978, 563.833 198.894 C 563.650 199.386, 559.644 203.998, 554.931 209.144 C 550.218 214.290, 543.733 221.425, 540.520 225 C 537.307 228.575, 530.336 236.225, 525.030 242 C 519.723 247.775, 508.949 259.611, 501.087 268.302 C 483.093 288.193, 480.688 290.745, 481.137 289.466 C 481.337 288.897, 493.988 263.582, 509.250 233.211 C 524.513 202.839, 537 177.628, 537 177.186 C 537 176.407, 523.001 167.705, 519.726 166.448 C 518.488 165.973, 516.220 168.738, 510.120 178.163 C 505.728 184.948, 498.616 195.892, 494.317 202.482 C 490.018 209.073, 486.317 214.923, 486.094 215.482 C 485.871 216.042, 483.146 220.325, 480.040 225 C 476.933 229.675, 471.790 237.660, 468.610 242.744 C 465.431 247.828, 462.459 252.216, 462.007 252.496 C 461.555 252.775, 462.678 248.165, 464.503 242.252 C 466.328 236.338, 469.025 227.450, 470.495 222.500 C 471.966 217.550, 474.214 210.125, 475.491 206 C 476.768 201.875, 479.479 192.875, 481.516 186 C 483.552 179.125, 486.519 169.332, 488.109 164.238 C 489.699 159.144, 490.992 154.419, 490.983 153.738 C 490.974 153.057, 488.611 151.512, 485.733 150.304 C 478.727 147.365, 461.954 141.698, 461.580 142.144 C 461.239 142.551, 459.752 146.989, 442.034 200.500 C 434.931 221.950, 429.087 238.825, 429.047 238 C 429.007 237.175, 429.677 228.625, 430.537 219 C 431.396 209.375, 433.400 186.885, 434.991 169.023 C 436.872 147.912, 437.535 136.331, 436.888 135.931 C 436.340 135.592, 431.528 134.562, 426.196 133.642 C 413.596 131.468, 406.002 130.245, 405.991 130.387 C 405.986 130.449, 404.402 141.975, 402.470 156 C 400.539 170.025, 398.520 185.100, 397.983 189.500 C 395.564 209.329, 393.721 221.563, 393.041 222.299 C 392.634 222.738, 391.995 218.688, 391.621 213.299 C 391.246 207.910, 390.281 197.200, 389.477 189.500 C 387.603 171.554, 384.017 133.031, 384.007 130.750 C 384.001 129.166, 382.790 129.017, 371.250 129.175 C 364.238 129.271, 356.587 129.522, 354.250 129.732 M 655.483 157.981 C 657.916 160.670, 656.399 162.382, 648.292 166.095 L 642.009 168.973 638.255 167.028 C 624.716 160.017, 601.946 160.577, 593.871 168.120 C 590.030 171.709, 590.454 173.989, 595.412 176.410 C 599.579 178.444, 614.464 179.246, 620.500 177.762 C 622.150 177.357, 620.301 178.707, 616.392 180.762 C 606.864 185.772, 605.402 186.735, 606.166 187.499 C 607.543 188.876, 618.463 192.832, 619.358 192.278 C 620.251 191.727, 618.019 189.567, 615.608 188.651 C 613.225 187.745, 622.850 182.298, 636.463 176.848 C 641.243 174.934, 641.474 174.928, 642.752 176.676 C 643.902 178.248, 644.205 178.290, 645.024 176.995 C 645.544 176.173, 645.976 174.747, 645.985 173.828 C 645.994 172.784, 647.409 171.699, 649.750 170.941 C 654.428 169.426, 662.579 165.393, 666.374 162.715 L 669.249 160.687 662.874 158.360 C 654.768 155.401, 653.069 155.314, 655.483 157.981 M 607.969 165.476 C 605.478 166.277, 602.214 168.211, 600.718 169.773 C 598.330 172.265, 598.162 172.839, 599.347 174.460 C 601.576 177.508, 612.831 176.799, 622.086 173.028 C 626.164 171.366, 629.612 170.005, 629.750 170.003 C 630.635 169.991, 629.167 172.723, 627.500 174.190 C 625.835 175.655, 626.382 175.584, 630.765 173.770 C 633.661 172.571, 635.878 171.120, 635.692 170.545 C 635.505 169.970, 633.404 168.415, 631.022 167.090 C 625.600 164.073, 614.707 163.310, 607.969 165.476 M 102.004 169.750 C 102.006 170.162, 102.921 171.998, 104.037 173.830 L 106.067 177.159 103.034 180.614 C 101.365 182.515, 100 184.294, 100 184.568 C 100 186.020, 105.179 195, 106.017 195 C 107.245 195, 107.241 194.764, 105.955 191.381 C 104.921 188.662, 106.265 183, 107.944 183 C 108.330 183, 109.660 185.031, 110.899 187.513 C 112.497 190.712, 112.962 192.898, 112.495 195.021 C 111.984 197.351, 112.521 199.126, 114.919 203.023 C 116.613 205.777, 118 208.225, 118 208.463 C 118 208.701, 120.143 212.857, 122.762 217.698 C 125.382 222.539, 128.807 229.537, 130.375 233.250 C 131.942 236.963, 133.589 240, 134.033 240 C 134.477 240, 135.127 238.697, 135.477 237.104 C 135.995 234.745, 134.183 230.249, 125.703 212.854 C 112.096 184.942, 111 182.583, 111 181.210 C 111 179.282, 116.769 176.805, 118.759 177.878 C 123.954 180.678, 128.943 189.919, 128.978 196.806 C 128.996 200.345, 128.457 201.609, 125.953 203.895 C 123.396 206.231, 123.135 206.867, 124.327 207.856 C 128.861 211.619, 132.491 202.532, 130.911 191.374 C 129.796 183.500, 127.277 178.328, 122.524 174.155 C 118.315 170.460, 114.986 170.162, 110.847 173.109 C 109.218 174.269, 107.775 175.057, 107.640 174.859 C 107.505 174.662, 106.621 173.262, 105.674 171.750 C 104.067 169.181, 101.995 168.052, 102.004 169.750 M 33.975 203.565 C 32.713 206.884, 32.799 208.819, 34.372 212.500 L 35.654 215.500 36.308 210.751 C 36.667 208.139, 37.244 204.876, 37.589 203.501 C 38.460 200.032, 35.297 200.089, 33.975 203.565 M 648.197 207.559 C 638.475 210.176, 635 212.828, 635 217.632 C 635 220.047, 635.664 221.389, 637.431 222.547 C 646.241 228.319, 662.564 230.184, 664.316 225.618 C 664.710 224.592, 663.258 224.412, 657.546 224.779 C 648.871 225.335, 643.324 223.805, 641.786 220.430 C 640.959 218.616, 641.034 217.663, 642.103 216.371 C 645.909 211.772, 659 209.040, 659 212.845 C 659 218.036, 673.787 223.938, 680.418 221.393 C 681.288 221.059, 682 219.788, 682 218.567 C 682 214.602, 675.101 209.915, 665.500 207.356 C 659.246 205.690, 654.956 205.740, 648.197 207.559 M 45.796 212.077 C 40.933 218.552, 35.982 229.519, 33.414 239.500 C 27.275 263.367, 34.301 282.460, 51.619 288.969 C 58.357 291.501, 62.739 291.286, 69.233 288.104 C 87.808 279.004, 98.877 248.779, 90.766 229.308 C 83.869 212.750, 71.827 206.705, 60.581 214.154 L 55.820 217.308 52.093 212.981 L 48.366 208.654 45.796 212.077 M 661 211.212 C 661 214.870, 669.693 219.398, 673.799 217.879 C 675.716 217.169, 675.915 216.709, 675.021 215.039 C 673.605 212.394, 671.464 211.342, 665.750 210.485 C 661.954 209.916, 661 210.062, 661 211.212 M 46.235 220.172 C 31.498 241.656, 30.307 262.566, 43.112 274.993 C 56.764 288.242, 71.916 286.322, 83.046 269.932 C 88.445 261.982, 90.173 256.909, 90.348 248.500 C 90.530 239.746, 88.846 233.834, 84.447 227.775 C 78.214 219.189, 65.936 214.401, 60.446 218.416 C 58.544 219.807, 58.550 219.897, 60.818 223.666 C 66.954 233.864, 69.651 243.704, 68.651 252.246 C 68.163 256.412, 61.741 272, 60.512 272 C 60.259 272, 59.341 270.626, 58.473 268.947 C 56.945 265.993, 57.014 265.646, 60.612 258.197 C 65.309 248.475, 66.184 240.456, 63.266 233.888 C 61.335 229.542, 56.453 223, 55.142 223 C 54.768 223, 53.046 225.588, 51.317 228.750 C 45.908 238.639, 45.984 247.276, 51.551 255.480 C 54.448 259.748, 54.291 260.545, 50.861 258.982 C 46.596 257.039, 44 252.018, 44 245.711 C 44 239.288, 47.626 228.490, 51.479 223.438 L 53.904 220.259 51.554 218.051 L 49.204 215.843 46.235 220.172 M 719 243.258 C 719 243.996, 719.523 245.123, 720.163 245.763 C 722.018 247.618, 717.949 248.602, 703 249.917 C 678.752 252.049, 673.158 252.879, 669.109 254.944 C 664.441 257.326, 663.657 258.343, 664.482 260.942 C 665.061 262.767, 672.282 267, 674.816 267 C 676.890 267, 676.090 265.362, 673.421 264.146 C 666.725 261.095, 672.975 259.345, 702.500 256.003 C 722.592 253.729, 730.024 252.251, 729.962 250.543 C 729.903 248.930, 719 241.684, 719 243.258 M 688.032 289.520 C 683.933 291.372, 683.036 292.569, 683.015 296.215 C 682.965 305.087, 708.290 317.661, 716.913 313.047 C 720.022 311.383, 721.044 308.058, 719.424 304.885 C 717.346 300.816, 708.193 297.260, 706.568 299.890 C 706.265 300.380, 707.543 301.067, 709.408 301.417 C 716.222 302.695, 716.776 307.355, 710.244 308.459 C 702.587 309.752, 689.484 304.775, 688.318 300.129 C 687.118 295.351, 692.091 293.322, 703.500 293.935 C 711.834 294.383, 719.978 300.490, 722.575 308.239 C 723.290 310.372, 724.417 311.610, 725.834 311.820 C 730.507 312.509, 727.428 305.307, 720.407 299.127 C 710.580 290.477, 695.693 286.059, 688.032 289.520 M 646.500 335.973 C 635.029 340.012, 584.691 356.577, 546 369.045 C 533.625 373.033, 514.950 379.084, 504.500 382.491 C 494.050 385.898, 477.288 391.310, 467.250 394.518 C 457.212 397.725, 449 400.868, 449 401.501 C 449 402.134, 450.039 403.628, 451.309 404.821 L 453.619 406.991 461.059 404.594 C 465.152 403.275, 476.375 399.715, 486 396.683 C 504.138 390.967, 525.915 384.098, 556 374.602 C 565.625 371.564, 593.469 362.779, 617.875 355.081 C 642.281 347.383, 662.420 340.913, 662.629 340.705 C 663.473 339.860, 660.202 332.486, 658.901 332.300 C 658.130 332.190, 652.550 333.843, 646.500 335.973 M 663.917 389.390 C 663.688 389.605, 657.875 390.304, 651 390.945 C 644.125 391.585, 630.400 393.014, 620.500 394.120 C 599.992 396.411, 567.482 399.869, 532.500 403.482 C 519.300 404.845, 502.875 406.613, 496 407.411 C 489.125 408.209, 477.762 409.421, 470.750 410.103 C 463.738 410.786, 458.015 411.604, 458.033 411.922 C 458.052 412.240, 458.953 413.564, 460.036 414.864 L 462.005 417.228 473.752 416.080 C 480.214 415.449, 495.625 413.831, 508 412.484 C 546.165 408.332, 586.205 404.046, 592.500 403.438 C 595.800 403.120, 607.950 401.790, 619.500 400.483 C 638.479 398.335, 671.369 394.976, 673.250 394.993 C 673.663 394.997, 674 393.650, 674 392 C 674 389.080, 673.870 389, 669.167 389 C 666.508 389, 664.146 389.176, 663.917 389.390 M 365.500 394.426 C 357.471 396.704, 355.758 397.543, 350.257 401.891 C 345.269 405.834, 338 415.179, 338 417.649 C 338 418.296, 343.691 422.239, 350.647 426.413 L 363.294 434 349.706 434 C 342.233 434, 335.920 434.337, 335.677 434.750 C 334.317 437.066, 340.529 452.696, 344.755 457.588 C 351.201 465.051, 364.172 471, 374 471 C 384.898 471, 397.783 464.786, 404.342 456.367 L 407.934 451.757 402.217 448.065 C 399.073 446.034, 393.350 442.601, 389.500 440.436 L 382.500 436.500 397.750 436.224 L 413 435.948 413 431.579 C 413 421.251, 406.906 408.913, 398.234 401.687 C 389.890 394.733, 375.595 391.562, 365.500 394.426 M 258 430.088 C 247.275 430.516, 216.675 431.562, 190 432.413 C 92.256 435.532, 75.454 436.134, 73.187 436.597 C 71.347 436.973, 70.938 437.626, 71.187 439.785 L 71.500 442.500 81 442.226 C 86.225 442.075, 108.950 441.306, 131.500 440.517 C 154.050 439.728, 197.025 438.330, 227 437.411 C 256.975 436.491, 281.560 435.685, 281.633 435.619 C 281.706 435.554, 282.080 434.038, 282.463 432.250 C 283.124 429.163, 283.017 429.008, 280.329 429.155 C 278.773 429.240, 268.725 429.660, 258 430.088 M 468.750 431.563 C 468.337 431.987, 468 433.334, 468 434.557 C 468 436.684, 468.495 436.812, 479.250 437.469 C 502.297 438.877, 565.961 443.066, 624.500 447.025 C 679.953 450.775, 677 450.767, 677 447.177 L 677 444.354 652.250 442.625 C 638.638 441.674, 617.375 440.233, 605 439.423 C 592.625 438.613, 562.475 436.628, 538 435.010 C 479.165 431.122, 469.641 430.648, 468.750 431.563 M 258 447.582 C 244.525 451.108, 230.800 454.624, 227.500 455.395 C 224.200 456.166, 207.325 460.443, 190 464.899 C 172.675 469.354, 144.550 476.587, 127.500 480.972 C 110.450 485.357, 92.295 489.960, 87.156 491.201 L 77.812 493.457 78.363 496.852 C 78.667 498.720, 79.099 500.432, 79.325 500.658 C 79.550 500.883, 92.282 497.867, 107.617 493.955 C 122.953 490.043, 138.875 486.016, 143 485.005 C 147.125 483.994, 157.475 481.361, 166 479.153 C 200.927 470.110, 229.822 462.721, 235 461.510 C 238.025 460.802, 248.375 458.151, 258 455.618 C 267.625 453.085, 276.625 450.770, 278 450.473 C 280.976 449.831, 265.306 457.727, 248.500 465.338 C 241.900 468.326, 227.500 474.919, 216.500 479.987 C 194.129 490.295, 192.648 490.980, 171.253 500.918 C 162.867 504.813, 155.825 508, 155.605 508 C 155.384 508, 150.095 510.415, 143.852 513.367 C 137.608 516.318, 122.993 523.103, 111.372 528.444 L 90.245 538.156 92.372 543.576 C 93.543 546.557, 94.972 548.997, 95.550 548.998 C 96.387 549, 128.964 534.206, 173.500 513.599 C 176.250 512.327, 192.450 504.860, 209.500 497.007 C 226.550 489.153, 243.331 481.407, 246.791 479.793 C 259.809 473.721, 294.559 457.821, 296 457.278 C 296.825 456.967, 295.303 458.991, 292.618 461.775 C 289.933 464.558, 287.233 466.647, 286.618 466.416 C 286.003 466.186, 283.839 467.460, 281.808 469.248 C 279.777 471.037, 274.827 475.055, 270.808 478.178 C 266.789 481.302, 252.475 492.515, 239 503.098 C 225.525 513.681, 211.575 524.595, 208 527.353 C 204.425 530.110, 199.193 534.196, 196.374 536.433 C 186.139 544.552, 166.023 560.359, 144 577.586 C 131.625 587.266, 121.123 595.544, 120.662 595.981 C 120.201 596.418, 121.082 598.739, 122.620 601.138 C 124.158 603.537, 125.511 605.650, 125.626 605.834 C 125.741 606.018, 130.400 602.868, 135.979 598.834 C 141.559 594.800, 147.392 590.600, 148.942 589.500 C 150.492 588.400, 153.952 585.947, 156.630 584.050 C 159.309 582.152, 169.768 574.579, 179.873 567.221 C 189.977 559.863, 200.327 552.376, 202.873 550.583 C 205.418 548.791, 212.900 543.403, 219.500 538.611 C 226.100 533.819, 234.145 528.008, 237.378 525.699 C 243.625 521.237, 246.749 518.987, 252.147 515.061 L 255.500 512.622 253.509 515.061 C 252.414 516.402, 249.714 519.539, 247.509 522.031 C 245.304 524.522, 241.437 529.022, 238.916 532.031 C 236.395 535.039, 226.047 547.175, 215.921 559 C 205.796 570.825, 196.608 581.591, 195.505 582.925 C 194.402 584.259, 191.475 587.653, 189 590.467 C 183.013 597.275, 178.279 602.794, 173.861 608.116 C 165.264 618.473, 162.178 622.101, 156.750 628.229 C 153.588 631.800, 151 635.136, 151 635.642 C 151 636.148, 153.698 639.233, 156.996 642.496 L 162.992 648.429 166.746 644.311 C 170.198 640.524, 210.198 599.545, 251.970 557 C 261.420 547.375, 268.797 540.175, 268.363 541 C 267.929 541.825, 265.940 544.975, 263.945 548 C 256.736 558.925, 239.071 585.920, 225.989 606 C 218.644 617.275, 207.115 634.923, 200.370 645.217 C 186.052 667.068, 185.835 667.446, 186.564 669.178 C 187.239 670.779, 204.665 683.895, 206.214 683.967 C 206.606 683.985, 209.116 680.737, 211.790 676.750 C 221.560 662.185, 244.591 628.105, 254.872 613 C 260.674 604.475, 268.542 592.878, 272.356 587.228 C 276.169 581.579, 279.436 577.102, 279.614 577.281 C 279.793 577.460, 278.594 581.182, 276.951 585.553 C 275.307 589.924, 273.118 595.750, 272.086 598.500 C 271.054 601.250, 268.346 608.675, 266.067 615 C 263.789 621.325, 261.279 628.075, 260.490 630 C 259.701 631.925, 256.835 639.575, 254.121 647 C 251.407 654.425, 248.717 661.625, 248.145 663 C 247.572 664.375, 245.457 669.775, 243.446 675 C 241.434 680.225, 238.486 687.731, 236.894 691.680 C 235.302 695.630, 234 699.355, 234 699.959 C 234 701.345, 254.395 711.100, 257.773 711.330 C 260.135 711.490, 260.793 710.266, 268.701 691 C 273.330 679.725, 277.696 668.925, 278.404 667 C 279.112 665.075, 283.208 654.950, 287.506 644.500 C 291.803 634.050, 296.582 622.350, 298.125 618.500 C 299.668 614.650, 300.947 612.006, 300.966 612.623 C 300.985 613.241, 298.279 629.891, 294.953 649.623 C 291.627 669.356, 287.582 693.357, 285.964 702.960 C 284.345 712.564, 283.383 720.783, 283.826 721.226 C 284.848 722.248, 310.740 728.960, 313.750 728.983 C 314.988 728.992, 316 728.766, 316 728.480 C 316 727.745, 321.636 699.275, 323.914 688.500 C 324.961 683.550, 326.840 673.739, 328.090 666.699 C 329.340 659.658, 330.671 654.483, 331.047 655.199 C 331.423 655.914, 332.259 672.250, 332.905 691.500 C 333.551 710.750, 334.295 727.901, 334.559 729.613 C 335.009 732.531, 335.367 732.767, 340.270 733.384 C 343.146 733.746, 352.363 734.328, 360.750 734.676 L 376 735.310 376.104 727.905 C 376.353 710.070, 378.644 671.747, 379.266 675 C 380.160 679.670, 385.447 710.979, 387.453 723.477 C 388.334 728.965, 389.404 733.804, 389.830 734.230 C 391.003 735.403, 429.214 731.120, 430.684 729.650 C 430.797 729.536, 430.464 727.656, 429.944 725.472 C 429.040 721.677, 426.240 709.352, 422.110 691 C 421.058 686.325, 420.312 682.378, 420.453 682.229 C 420.762 681.901, 425.930 693.593, 436.042 717.500 C 438.368 723, 440.368 727.620, 440.485 727.766 C 441.186 728.639, 472.525 719.088, 485.247 714.123 L 487.995 713.051 486.116 709.776 C 483.104 704.527, 477.647 695.709, 475.749 693.027 C 473.483 689.824, 473.485 688.135, 475.753 690.597 C 476.718 691.644, 481.607 696.459, 486.618 701.299 L 495.730 710.098 511.281 702.175 C 546.138 684.415, 569.610 666.194, 592.041 639.481 C 599.803 630.238, 615.127 609.936, 618.562 604.346 C 619.628 602.611, 622.638 597.985, 625.250 594.065 C 627.863 590.145, 630 586.684, 630 586.373 C 630 586.063, 630.839 584.614, 631.864 583.154 C 635.509 577.962, 650.316 550.024, 655.794 538 C 663.788 520.458, 670.115 502.782, 668.853 501.520 C 668.606 501.273, 662.078 499.722, 654.345 498.073 C 646.612 496.425, 606.808 486.706, 565.892 476.476 C 524.977 466.246, 487 456.808, 481.500 455.504 C 476 454.199, 469.164 452.474, 466.309 451.672 C 461.444 450.304, 461.010 450.331, 459.398 452.112 C 458.453 453.157, 457.864 454.162, 458.089 454.344 C 458.791 454.912, 624.790 496, 626.380 496 C 629.901 496, 628.586 498.138, 622.257 502.704 C 606.565 514.024, 585.376 526.281, 581.500 526.281 C 579.628 526.281, 564.782 519.504, 542 508.249 C 461.670 468.566, 449.711 462.889, 448.662 463.938 C 448.096 464.504, 447.828 465.149, 448.067 465.373 C 448.305 465.596, 457.050 469.940, 467.500 475.026 C 484.691 483.392, 516.986 499.207, 561.911 521.257 L 578.321 529.312 571.411 532.802 C 567.610 534.722, 558.907 538.708, 552.071 541.659 L 539.642 547.026 533.071 542.535 C 524.833 536.905, 500.830 520.095, 495.500 516.224 C 490.954 512.921, 468.612 497.163, 465.346 494.956 C 464.161 494.155, 457.029 489.087, 449.496 483.694 C 436.560 474.431, 432.285 472.502, 431.342 475.500 C 431.169 476.050, 436.309 480.174, 442.764 484.665 C 453.037 491.813, 473.592 506.286, 502 526.375 C 511.650 533.198, 517.908 537.587, 526.928 543.853 C 530.374 546.247, 532.813 548.564, 532.347 549.002 C 531.305 549.981, 507.257 557.658, 499.899 559.361 C 497.038 560.024, 497.770 560.727, 461.503 522.443 C 452.155 512.574, 441.729 501.575, 438.333 498 C 434.938 494.425, 429.762 488.909, 426.830 485.742 C 423.899 482.575, 420.938 479.987, 420.250 479.992 C 418.911 480.001, 418.500 482.611, 419.750 483.167 C 420.493 483.497, 438.122 501.965, 474.457 540.479 L 493.306 560.458 489.903 561.184 C 482.585 562.747, 464.204 565.163, 462.087 564.841 C 460.327 564.572, 454.687 555.887, 435.566 524 C 415.832 491.091, 410.925 483.565, 409.390 483.845 C 408.350 484.035, 407.321 484.364, 407.101 484.577 C 406.758 484.910, 416.770 502.226, 423.534 513 C 424.742 514.925, 427.448 519.425, 429.546 523 C 431.644 526.575, 436.929 535.350, 441.290 542.500 C 452.857 561.467, 455 565.079, 455 565.611 C 455 565.874, 449.345 566.021, 442.433 565.937 L 429.865 565.785 428.473 562.643 C 427.708 560.914, 424.640 553.200, 421.657 545.500 C 418.674 537.800, 413.318 524.075, 409.755 515 C 406.193 505.925, 402.213 495.706, 400.910 492.291 C 399.137 487.643, 398.104 486.149, 396.797 486.349 C 395.837 486.495, 394.826 486.841, 394.549 487.117 C 394.097 487.570, 403.880 513.724, 407.518 521.784 C 408.333 523.590, 409 525.490, 409 526.007 C 409 526.523, 410.078 529.320, 411.395 532.223 C 415.850 542.037, 424.086 564.248, 423.491 564.843 C 422.901 565.433, 403.513 562.435, 402.042 561.526 C 401.614 561.262, 400.522 557.323, 399.614 552.773 C 395.174 530.526, 387 488.841, 387 488.446 C 387 488.201, 386.325 488, 385.500 488 C 384.675 488, 384 488.183, 384 488.407 C 384 488.881, 392.039 530.025, 395.529 547.410 C 396.844 553.961, 397.713 559.656, 397.460 560.065 C 396.907 560.960, 388.199 558.797, 378.250 555.294 L 371 552.741 371 520.787 C 371 495.669, 370.733 488.922, 369.750 489.250 C 368.794 489.568, 368.438 496.892, 368.235 520.396 C 367.972 551.029, 367.964 551.123, 365.886 550.464 C 360.234 548.670, 352.867 544.818, 352.310 543.364 C 351.965 542.466, 352.221 538.305, 352.879 534.116 C 354.477 523.936, 358.991 490.824, 358.996 489.250 C 359.002 487.329, 355.198 487.768, 354.657 489.750 C 354.394 490.712, 353.689 495.100, 353.090 499.500 C 350.566 518.056, 347.833 536.657, 347.317 538.788 C 346.782 541.003, 346.681 541.023, 344.132 539.404 C 337.532 535.212, 333.059 531.363, 333.031 529.850 C 333.001 528.262, 338.013 514.331, 341.971 505 C 347.777 491.312, 349.182 486.731, 347.837 485.879 C 345.564 484.440, 344.722 485.389, 341.906 492.562 C 340.408 496.378, 337.084 504.877, 334.520 511.449 C 327.600 529.182, 328.804 528.233, 321.900 521.402 C 318.655 518.190, 316 515.217, 316 514.795 C 316 514.372, 320.280 507.158, 325.511 498.763 C 330.742 490.368, 335.051 483.061, 335.086 482.525 C 335.327 478.850, 331.927 482.931, 323.484 496.449 C 318.142 505.002, 313.612 512, 313.418 512 C 313.224 512, 311.166 509.484, 308.844 506.410 C 305.881 502.486, 304.903 500.432, 305.562 499.516 C 308.153 495.916, 322.585 478.406, 323.470 477.789 C 324.095 477.355, 323.717 476.506, 322.495 475.601 C 320.120 473.840, 320.805 473.246, 310.509 486 C 306.291 491.225, 302.401 495.500, 301.864 495.500 C 300.836 495.500, 295.364 486.222, 296.082 485.697 C 296.312 485.529, 300.393 481.974, 305.150 477.796 C 311.443 472.271, 313.501 469.901, 312.700 469.100 C 310.824 467.224, 309.690 467.800, 302.076 474.500 C 298.014 478.075, 294.331 481, 293.892 481 C 293.453 481, 292.191 478.960, 291.088 476.466 L 289.083 471.933 295.041 466.299 C 298.319 463.200, 300.994 460.403, 300.986 460.083 C 300.978 459.762, 299.192 457.527, 297.017 455.115 C 294.842 452.704, 291.586 448.553, 289.781 445.891 C 287.635 442.725, 285.808 441.072, 284.500 441.112 C 283.400 441.144, 271.475 444.056, 258 447.582" stroke="none" fill="#f9fbfa" fill-rule="evenodd"/></svg>